# xmcd
#
# Track frame offsets:
# 150
# 13735
# 33953
# 50920
# 65463
# 80907
# 99480
# 115011
# 129813
# 149233
# 163702
#
# Disc length: 2531 seconds
#
# Revision: 0
# Processed by: cddbd v1.5.2PL0 Copyright (c) Steve Scherf et al.
# Submitted via: Axialis_AX_CDPlayer 2.6
#
DISCID=9a09e10b
DTITLE=Jamey Johnson - The Dollar
DYEAR=1900
DGENRE=
TTITLE0=The Dollar
TTITLE1=Flying Silver Eagle
TTITLE2=She's All Lady
TTITLE3=Ray Ray's Juke Joint
TTITLE4=My Saving Grace
TTITLE5=Redneck Side Of Me
TTITLE6=Keeping Up With The Jonesin' George Jones
TTITLE7=Rebelicious
TTITLE8=Back To Caroline
TTITLE9=It Was Me
TTITLE10=Lead Me Home
EXTD=www.jameyjohnson.com
EXTT0=
EXTT1=
EXTT2=
EXTT3=
EXTT4=
EXTT5=
EXTT6=
EXTT7=
EXTT8=
EXTT9=
EXTT10=
PLAYORDER=
